<?xml version="1.0" encoding="utf-8"?>
<!-- Generator: Adobe Illustrator 23.0.4, SVG Export Plug-In . SVG Version: 6.00 Build 0)  -->
<svg version="1.1" xmlns="http://www.w3.org/2000/svg" xmlns:xlink="http://www.w3.org/1999/xlink" x="0px" y="0px"
	 viewBox="0 0 122 42" style="enable-background:new 0 0 122 42;" xml:space="preserve">
<style type="text/css">
	.st0{fill:#FFFFFF;}
	.st1{fill:#152D6D;}
	.st2{fill:#E30613;}
</style>
<g id="WHITE_SURROUND_NEW">
	<path class="st0" d="M0,41.3L7.15,8.04c0.92-4.28,4.77-7.39,9.15-7.39H122l-7.15,33.26c-0.93,4.35-4.7,7.38-9.15,7.38H0z"/>
</g>
<g id="BCA_LOGO">
	<path class="st1" d="M100.47,2.69H16.3c-3.45,0-6.44,2.41-7.16,5.78L2.51,39.27h81.37c3.46,0,6.45-2.42,7.17-5.8l5.31-24.96
		C97.34,4.13,100.47,2.69,100.47,2.69z"/>
	<path class="st0" d="M24.07,22.51h3.03c2.09,0,3.13,0.84,3.13,2.52c0,2.12-1.58,3.36-4.61,3.36h-2.79L24.07,22.51z M20.87,9.34
		l-2.41,0c0,0,2.08,1.43,1.72,3.19c-0.43,2.01-4.29,20.13-4.29,20.13h9.42c3.3,0,5.85-0.24,7.97-1.75c1.88-1.35,2.93-3.36,2.93-5.65
		c0-2.42-1.65-4.24-4.58-4.81c3.73-0.34,6.09-2.86,6.09-5.95c0-2.05-1.11-3.7-3.06-4.57c-1.04-0.47-2.69-0.61-4.98-0.61H20.87z
		 M26.02,13.34h2.79c1.78,0,2.83,0.94,2.83,2.35c0,1.82-1.61,2.99-4.58,2.99h-2.15L26.02,13.34z"/>
	<path class="st0" d="M70.25,9.34l-13.8,23.33h6.56l2.79-4.97h9.15l0.61,4.97h6.19c0,0-3.1-18.93-3.3-20.42s1.56-2.91,1.56-2.91
		H70.25z M73.38,13.91l1.11,9.38H68.2L73.38,13.91z"/>
	<path class="st0" d="M58.21,15.02c-1.61-1-2.86-1.61-4.97-1.61c-5.66,0-8.91,3.41-8.91,8.97c0,3.61,2.51,5.96,6.63,5.96
		c1.84,0,4.86-0.98,6.73-1.91l-3.24,5.52c-1.21,0.82-3.01,1.14-4.9,1.17c-7.4,0.14-11.62-4.15-11.62-10.91
		c0-3.58,1.37-7.03,3.62-9.33c2.81-2.88,6.2-4.05,10.85-4.05c2.51,0,5.74,0.51,8.49,1.66L58.21,15.02z"/>
	<path class="st2" d="M99.26,8.48c0,0-4.33,20.56-5.31,24.95s-4.11,5.84-4.11,5.84h15.86c3.49,0,6.44-2.41,7.16-5.78l6.62-30.81
		h-13.06C102.96,2.69,99.98,5.1,99.26,8.48z"/>
</g>
</svg>
